<svg width="45" height="42" viewBox="0 0 45 42" fill="none" xmlns="http://www.w3.org/2000/svg">
<ellipse cx="22.5" cy="21" rx="22.3069" ry="20.75" fill="#A9A7A0"/>
<path d="M22.8781 30.3688C22.7381 30.3688 22.5971 30.3363 22.4677 30.2723C21.0206 29.5456 19.4126 29.166 17.7805 29.166C16.1484 29.166 14.5405 29.5456 13.0934 30.2723C12.9582 30.3398 12.8072 30.3727 12.655 30.3677C12.5027 30.3628 12.3544 30.3203 12.2242 30.2443C12.0939 30.1683 11.9862 30.0613 11.9113 29.9336C11.8363 29.8059 11.7968 29.6618 11.7964 29.5152V13.2968C11.7964 13.1591 11.831 13.0235 11.8972 12.9014C11.9634 12.7794 12.0593 12.6746 12.1767 12.596C15.5287 10.3502 20.0323 10.3502 23.3852 12.596C23.6228 12.7556 23.7647 13.0177 23.7647 13.2968V29.5152C23.7647 29.7416 23.6713 29.9587 23.505 30.1188C23.3387 30.2788 23.1133 30.3688 22.8781 30.3688ZM17.7805 27.4589C19.2079 27.4589 20.6361 27.7056 21.9916 28.1989V13.7577C20.7233 13.0125 19.2663 12.6182 17.7805 12.6182C16.2947 12.6182 14.8377 13.0125 13.5695 13.7577V28.1989C14.9152 27.7094 16.3419 27.4587 17.7805 27.4589Z" fill="white"/>
<path d="M33.0732 30.3688C32.9331 30.3688 32.7922 30.3363 32.6627 30.2723C31.2157 29.5456 29.6077 29.166 27.9756 29.166C26.3435 29.166 24.7355 29.5456 23.2885 30.2723C23.1532 30.3398 23.0023 30.3727 22.85 30.3677C22.6978 30.3628 22.5495 30.3203 22.4192 30.2443C22.289 30.1683 22.1812 30.0613 22.1063 29.9336C22.0314 29.8059 21.9919 29.6618 21.9915 29.5152V13.2968C21.9914 13.1591 22.026 13.0235 22.0923 12.9014C22.1585 12.7794 22.2544 12.6746 22.3718 12.596C25.7238 10.3502 30.2274 10.3502 33.5803 12.596C33.8179 12.7556 33.9597 13.0177 33.9597 13.2968V29.5152C33.9597 29.7416 33.8663 29.9587 33.7001 30.1188C33.5338 30.2788 33.3083 30.3688 33.0732 30.3688ZM27.9756 27.4589C29.4029 27.4589 30.8311 27.7056 32.1867 28.1989V13.7577C30.9184 13.0125 29.4614 12.6182 27.9756 12.6182C26.4898 12.6182 25.0328 13.0125 23.7645 13.7577V28.1989C25.1103 27.7094 26.537 27.4587 27.9756 27.4589Z" fill="white"/>
</svg>
