<svg width="29" height="29" viewBox="0 0 29 29" fill="none" xmlns="http://www.w3.org/2000/svg">
<g clip-path="url(#clip0_678_1133)">
<path d="M28.2268 14.8223C28.2268 13.8706 28.1496 12.9138 27.985 11.9775H14.7798V17.3687H22.3418C22.028 19.1074 21.0197 20.6456 19.5433 21.623V25.121H24.0548C26.7041 22.6827 28.2268 19.0817 28.2268 14.8223Z" fill="#4285F4"/>
<path d="M14.7798 28.5009C18.5557 28.5009 21.7399 27.2611 24.06 25.1211L19.5485 21.6231C18.2933 22.477 16.6729 22.9606 14.7849 22.9606C11.1325 22.9606 8.03572 20.4965 6.92456 17.1836H2.26904V20.7897C4.64567 25.5172 9.48639 28.5009 14.7798 28.5009Z" fill="#34A853"/>
<path d="M6.91941 17.1837C6.33297 15.4449 6.33297 13.5621 6.91941 11.8234V8.21729H2.26904C0.283368 12.1732 0.283368 16.8339 2.26904 20.7898L6.91941 17.1837Z" fill="#FBBC04"/>
<path d="M14.7798 6.04127C16.7757 6.01041 18.7048 6.76146 20.1504 8.14012L24.1474 4.14305C21.6165 1.76642 18.2573 0.45979 14.7798 0.500943C9.48638 0.500943 4.64567 3.48459 2.26904 8.21728L6.91942 11.8234C8.02542 8.50536 11.1274 6.04127 14.7798 6.04127Z" fill="#EA4335"/>
</g>
<defs>
<clipPath id="clip0_678_1133">
<rect width="28" height="28" fill="white" transform="translate(0.5 0.5)"/>
</clipPath>
</defs>
</svg>
