<svg width="42" height="42" viewBox="0 0 42 42" fill="none" xmlns="http://www.w3.org/2000/svg">
<ellipse cx="21.25" cy="21" rx="20.75" ry="21" fill="#A8A7A2"/>
<path d="M16.6781 33.158C16.4206 33.158 16.1646 33.0438 15.9381 32.8177C15.7343 32.6124 15.5662 32.3262 15.4495 31.986C15.3328 31.6459 15.2715 31.2631 15.2712 30.8738V12.5998C15.2712 11.8071 15.5245 11.0716 15.9381 10.6559C16.1423 10.452 16.375 10.3358 16.6145 10.3183C16.8539 10.3007 17.0922 10.3823 17.3069 10.5554L28.5615 19.6924C28.7952 19.8824 28.9917 20.1743 29.129 20.5354C29.2663 20.8964 29.339 21.3124 29.339 21.7368C29.339 22.1611 29.2663 22.5771 29.129 22.9382C28.9917 23.2992 28.7952 23.5911 28.5615 23.7812L17.3069 32.9182C17.11 33.0781 16.8919 33.158 16.6781 33.158Z" fill="white"/>
</svg>
