<svg width="42" height="39" viewBox="0 0 42 39" fill="none" xmlns="http://www.w3.org/2000/svg">
<ellipse cx="21" cy="19.5" rx="20.75" ry="19.5" fill="#5D3693"/>
<g clip-path="url(#clip0_454_1510)">
<path d="M21.7033 17.6402C22.6394 17.6418 23.555 17.3501 24.334 16.8021C25.1131 16.254 25.7208 15.4741 26.0801 14.5612C26.4393 13.6483 26.5341 12.6433 26.3524 11.6735C26.1708 10.7037 25.7207 9.81255 25.0593 9.11291C24.398 8.41327 23.5549 7.93656 22.6369 7.7431C21.7189 7.54963 20.7672 7.64811 19.9022 8.02607C19.0372 8.40403 18.2978 9.04449 17.7776 9.8664C17.2573 10.6883 16.9796 11.6547 16.9796 12.6434C16.9796 13.9672 17.4771 15.2369 18.3627 16.1738C19.2483 17.1107 20.4498 17.6381 21.7033 17.6402ZM21.7033 9.27961C22.3354 9.278 22.9538 9.47459 23.48 9.84448C24.0062 10.2144 24.4166 10.7409 24.6592 11.3574C24.9018 11.9738 24.9657 12.6525 24.8428 13.3073C24.7198 13.9621 24.4156 14.5637 23.9686 15.0357C23.5216 15.5078 22.952 15.8291 22.332 15.959C21.712 16.0888 21.0694 16.0213 20.4857 15.7651C19.902 15.5089 19.4034 15.0755 19.0532 14.5197C18.7029 13.964 18.5168 13.3109 18.5183 12.6434C18.5203 11.7519 18.8565 10.8976 19.4534 10.2672C20.0503 9.63683 20.8592 9.28175 21.7033 9.27961ZM30.4583 28.6252C29.5351 31.1359 25.3346 32.0296 21.7033 32.0296C18.0721 32.0296 13.8715 31.1359 12.9483 28.6252C12.456 27.2846 12.8945 25.294 14.0946 23.4334C14.9295 22.1025 16.0584 21.0062 17.384 20.239C18.7095 19.4718 20.192 19.0567 21.7033 19.0296C23.4871 19.0709 25.223 19.6464 26.709 20.6893C28.1949 21.7322 29.3698 23.1995 30.0968 24.9202C30.1487 25.0188 30.1806 25.1277 30.1904 25.24C30.2003 25.3523 30.188 25.4655 30.1542 25.5725C30.1203 25.6794 30.0658 25.7778 29.994 25.8613C29.9222 25.9448 29.8348 26.0116 29.7372 26.0575C29.6397 26.1033 29.5341 26.1272 29.4274 26.1277C29.3206 26.1281 29.2149 26.105 29.117 26.06C29.0191 26.0149 28.9312 25.9488 28.8588 25.8659C28.7864 25.783 28.7312 25.685 28.6966 25.5784C28.0802 24.1516 27.0991 22.9349 25.8637 22.065C24.6282 21.1952 23.1874 20.7067 21.7033 20.6546C20.4431 20.6816 19.208 21.0323 18.1048 21.6764C17.0016 22.3205 16.0636 23.2386 15.3717 24.3515C14.3408 25.9359 14.1331 27.374 14.3793 28.0402C14.887 29.4134 17.9644 30.4046 21.7033 30.4046C25.4423 30.4046 28.5196 29.4134 29.0274 28.0402C29.1107 27.855 29.2573 27.7099 29.4377 27.6341C29.618 27.5582 29.8189 27.5572 30 27.6312C30.1811 27.7052 30.3289 27.8488 30.4139 28.0332C30.4989 28.2175 30.5148 28.429 30.4583 28.6252Z" fill="white"/>
</g>
<defs>
<clipPath id="clip0_454_1510">
<rect width="24.6186" height="26" fill="white" transform="translate(9.39404 6.84229)"/>
</clipPath>
</defs>
</svg>
