<svg width="65" height="65" viewBox="0 0 65 65" fill="none" xmlns="http://www.w3.org/2000/svg">
<ellipse cx="32.3795" cy="32.4977" rx="32.3092" ry="31.5672" fill="#CD9048"/>
<g clip-path="url(#clip0_6079_942)">
<path d="M33.4736 29.4869C34.9312 29.4895 36.3567 29.0173 37.5698 28.13C38.7829 27.2428 39.729 25.9804 40.2885 24.5025C40.8479 23.0246 40.9955 21.3978 40.7126 19.8278C40.4297 18.2578 39.729 16.8152 38.6991 15.6826C37.6693 14.55 36.3566 13.7783 34.9272 13.4651C33.4978 13.1519 32.0159 13.3113 30.6691 13.9232C29.3222 14.5351 28.1709 15.5719 27.3609 16.9024C26.5508 18.2329 26.1184 19.7974 26.1184 21.3978C26.1184 23.5409 26.893 25.5964 28.272 27.113C29.651 28.6296 31.5218 29.4834 33.4736 29.4869ZM33.4736 15.9525C34.4578 15.9499 35.4206 16.2681 36.24 16.8669C37.0594 17.4657 37.6984 18.3181 38.0761 19.316C38.4539 20.3139 38.5534 21.4126 38.3619 22.4726C38.1705 23.5327 37.6968 24.5065 37.0008 25.2707C36.3048 26.0349 35.4179 26.555 34.4525 26.7652C33.487 26.9754 32.4865 26.8662 31.5776 26.4514C30.6687 26.0367 29.8924 25.335 29.3471 24.4353C28.8017 23.5357 28.5119 22.4785 28.5143 21.3978C28.5174 19.9547 29.0409 18.5717 29.9703 17.5512C30.8997 16.5308 32.1593 15.9559 33.4736 15.9525ZM47.1058 47.2698C45.6683 51.3341 39.1277 52.7809 33.4736 52.7809C27.8195 52.7809 21.2789 51.3341 19.8414 47.2698C19.0748 45.0995 19.7576 41.877 21.6263 38.865C22.9262 36.7106 24.684 34.9358 26.748 33.6938C28.812 32.4518 31.1203 31.7799 33.4736 31.7361C36.251 31.8029 38.954 32.7346 41.2677 34.4229C43.5815 36.1111 45.4108 38.4864 46.5427 41.272C46.6236 41.4316 46.6732 41.6078 46.6886 41.7896C46.704 41.9714 46.6848 42.1547 46.6321 42.3279C46.5795 42.501 46.4945 42.6603 46.3828 42.7955C46.271 42.9306 46.1348 43.0388 45.9829 43.113C45.831 43.1872 45.6667 43.2259 45.5004 43.2266C45.3342 43.2273 45.1696 43.19 45.0172 43.1171C44.8647 43.0441 44.7278 42.9371 44.6151 42.8029C44.5024 42.6686 44.4164 42.5101 44.3625 42.3374C43.4029 40.0278 41.8753 38.0581 39.9515 36.6499C38.0278 35.2418 35.7843 34.451 33.4736 34.3667C31.5112 34.4103 29.5881 34.9781 27.8704 36.0208C26.1527 37.0635 24.6921 38.5498 23.6148 40.3513C22.0096 42.9161 21.6862 45.2442 22.0695 46.3228C22.8601 48.5456 27.6518 50.1503 33.4736 50.1503C39.2954 50.1503 44.087 48.5456 44.8776 46.3228C45.0074 46.0229 45.2356 45.7881 45.5165 45.6653C45.7973 45.5424 46.1101 45.5408 46.3921 45.6606C46.674 45.7805 46.9043 46.0129 47.0366 46.3114C47.169 46.6098 47.1937 46.9522 47.1058 47.2698Z" fill="white"/>
</g>
<defs>
<clipPath id="clip0_6079_942">
<rect width="38.333" height="42.0896" fill="white" transform="translate(14.3076 12.0068)"/>
</clipPath>
</defs>
</svg>
