<svg width="67" height="64" viewBox="0 0 67 64" fill="none" xmlns="http://www.w3.org/2000/svg">
<ellipse cx="33.4093" cy="31.5686" rx="32.7452" ry="31.5149" fill="#CD9048"/>
<path d="M33.9646 45.7972C33.759 45.7972 33.5521 45.7479 33.3621 45.6507C31.2379 44.5469 28.8775 43.9705 26.4816 43.9705C24.0858 43.9705 21.7254 44.5469 19.6012 45.6507C19.4027 45.7532 19.1811 45.8031 18.9576 45.7956C18.7342 45.7882 18.5164 45.7236 18.3252 45.6082C18.134 45.4927 17.9759 45.3302 17.8659 45.1363C17.7559 44.9423 17.6979 44.7235 17.6973 44.5008V19.8684C17.6973 19.6593 17.748 19.4533 17.8452 19.268C17.9425 19.0826 18.0832 18.9235 18.2556 18.804C23.1761 15.3931 29.7872 15.3931 34.709 18.804C35.0578 19.0465 35.266 19.4445 35.266 19.8684V44.5008C35.266 44.8446 35.1289 45.1744 34.8848 45.4175C34.6408 45.6606 34.3098 45.7972 33.9646 45.7972ZM26.4816 41.3776C28.5769 41.3776 30.6734 41.7523 32.6632 42.5017V20.5685C30.8015 19.4366 28.6627 18.8378 26.4816 18.8378C24.3006 18.8378 22.1618 19.4366 20.3 20.5685V42.5017C22.2755 41.7582 24.3699 41.3774 26.4816 41.3776Z" fill="white"/>
<path d="M48.9304 45.7972C48.7248 45.7972 48.5179 45.7479 48.3279 45.6507C46.2037 44.5469 43.8433 43.9705 41.4475 43.9705C39.0516 43.9705 36.6912 44.5469 34.567 45.6507C34.3685 45.7532 34.1469 45.8031 33.9234 45.7956C33.7 45.7882 33.4822 45.7236 33.291 45.6082C33.0998 45.4927 32.9417 45.3302 32.8317 45.1363C32.7217 44.9423 32.6637 44.7235 32.6631 44.5008V19.8684C32.6631 19.6593 32.7138 19.4533 32.8111 19.268C32.9083 19.0826 33.0491 18.9235 33.2214 18.804C38.1419 15.3931 44.753 15.3931 49.6748 18.804C50.0236 19.0465 50.2318 19.4445 50.2318 19.8684V44.5008C50.2318 44.8446 50.0947 45.1744 49.8507 45.4175C49.6066 45.6606 49.2756 45.7972 48.9304 45.7972ZM41.4475 41.3776C43.5427 41.3776 45.6392 41.7523 47.6291 42.5017V20.5685C45.7673 19.4366 43.6285 18.8378 41.4475 18.8378C39.2664 18.8378 37.1276 19.4366 35.2659 20.5685V42.5017C37.2414 41.7582 39.3357 41.3774 41.4475 41.3776Z" fill="white"/>
</svg>
