<svg width="62" height="63" viewBox="0 0 62 63" fill="none" xmlns="http://www.w3.org/2000/svg">
<ellipse cx="31.1375" cy="31.1836" rx="30.4735" ry="30.8406" fill="#CD9048"/>
<path d="M24.0151 45.87C23.6388 45.87 23.2646 45.7305 22.9336 45.4542C22.6358 45.2035 22.39 44.8538 22.2195 44.4383C22.049 44.0228 21.9593 43.5552 21.959 43.0796V20.7564C21.959 19.7882 22.3291 18.8897 22.9336 18.3818C23.232 18.1328 23.5722 17.9909 23.9222 17.9694C24.2721 17.9479 24.6204 18.0476 24.9342 18.259L41.383 29.4206C41.7245 29.6528 42.0117 30.0093 42.2124 30.4504C42.4131 30.8915 42.5194 31.3996 42.5194 31.918C42.5194 32.4364 42.4131 32.9446 42.2124 33.3856C42.0117 33.8267 41.7245 34.1833 41.383 34.4154L24.9342 45.577C24.6463 45.7723 24.3276 45.87 24.0151 45.87Z" fill="white"/>
</svg>
